<svg width="24" height="24" viewBox="0 0 24 24" fill="none" xmlns="http://www.w3.org/2000/svg">
<g clip-path="url(#clip0_303_62)">
<path d="M3.89004 15.6724L6.25504 0.461424C6.272 0.348592 6.32414 0.243991 6.40403 0.162523C6.48391 0.0810557 6.58747 0.0268769 6.69995 0.00770585C6.81243 -0.0114652 6.92809 0.00534924 7.03045 0.0557538C7.13281 0.106158 7.21666 0.187582 7.27004 0.288424L9.81304 5.05942L3.89004 15.6724ZM20.684 19.3644L18.434 5.36442C18.4186 5.26549 18.376 5.17279 18.3109 5.09668C18.2458 5.02058 18.1609 4.96406 18.0655 4.93346C17.9702 4.90285 17.8682 4.89936 17.771 4.92337C17.6738 4.94738 17.5852 4.99795 17.515 5.06942L3.31604 19.3654L11.172 23.7924C11.4145 23.9286 11.6879 24.0002 11.966 24.0002C12.2441 24.0002 12.5176 23.9286 12.76 23.7924L20.684 19.3644ZM14.3 7.14742L12.48 3.66542C12.4341 3.57786 12.3651 3.50452 12.2805 3.45336C12.1959 3.40219 12.0989 3.37515 12 3.37515C11.9012 3.37515 11.8042 3.40219 11.7196 3.45336C11.635 3.50452 11.566 3.57786 11.52 3.66542L3.53004 17.9844L14.3 7.14742Z" fill="#CACACA"/>
</g>
<defs>
<clipPath id="clip0_303_62">
<rect width="24" height="24" fill="white"/>
</clipPath>
</defs>
</svg>
