<svg width="24" height="24" viewBox="0 0 24 24" fill="none" xmlns="http://www.w3.org/2000/svg">
<g clip-path="url(#clip0_303_68)">
<path d="M24 5.45758V19.3666C24 20.2706 23.268 21.0026 22.364 21.0026H18.545V11.7306L12 16.6406L5.455 11.7306V21.0036H1.636C1.42107 21.0036 1.20825 20.9612 1.0097 20.879C0.811145 20.7967 0.63075 20.6761 0.47882 20.5241C0.32689 20.372 0.206404 20.1916 0.124246 19.993C0.0420884 19.7944 -0.000131068 19.5815 3.05652e-07 19.3666V5.45758C3.05652e-07 3.43458 2.309 2.27958 3.927 3.49358L5.455 4.64058L12 9.54858L18.545 4.63858L20.073 3.49358C21.69 2.28058 24 3.43458 24 5.45758Z" fill="#CACACA"/>
</g>
<defs>
<clipPath id="clip0_303_68">
<rect width="24" height="24" fill="white"/>
</clipPath>
</defs>
</svg>
