<svg width="24" height="24" viewBox="0 0 24 24" fill="none" xmlns="http://www.w3.org/2000/svg">
<g clip-path="url(#clip0_303_70)">
<path d="M1.81104 10.23C1.76404 10.23 1.75304 10.207 1.77604 10.171L2.02204 9.85604C2.04504 9.82104 2.10304 9.79804 2.15004 9.79804H6.32204C6.36804 9.79804 6.38004 9.83304 6.35704 9.86804L6.15804 10.171C6.13504 10.207 6.07604 10.241 6.04104 10.241L1.81104 10.23ZM0.0470373 11.305C3.72976e-05 11.305 -0.0119627 11.282 0.0120373 11.247L0.257037 10.931C0.280037 10.896 0.339037 10.873 0.386037 10.873H5.71404C5.76104 10.873 5.78404 10.908 5.77204 10.943L5.67904 11.223C5.66704 11.27 5.62104 11.293 5.57404 11.293L0.0470373 11.305ZM2.87504 12.38C2.82804 12.38 2.81604 12.345 2.84004 12.31L3.00304 12.018C3.02604 11.983 3.07304 11.948 3.12004 11.948H5.45704C5.50404 11.948 5.52704 11.983 5.52704 12.03L5.50404 12.31C5.50404 12.357 5.45704 12.392 5.42204 12.392L2.87504 12.38ZM15.004 10.02C14.268 10.207 13.765 10.347 13.041 10.534C12.865 10.58 12.854 10.592 12.701 10.417C12.527 10.218 12.398 10.09 12.153 9.97304C11.416 9.61104 10.703 9.71604 10.038 10.148C9.24304 10.662 8.83404 11.422 8.84604 12.368C8.85704 13.303 9.50004 14.074 10.423 14.203C11.218 14.308 11.883 14.028 12.41 13.433C12.515 13.303 12.608 13.163 12.725 12.999H10.47C10.225 12.999 10.166 12.847 10.248 12.649C10.4 12.287 10.68 11.679 10.844 11.375C10.8691 11.3187 10.9101 11.271 10.962 11.2377C11.0139 11.2045 11.0744 11.1872 11.136 11.188H15.389C15.366 11.504 15.366 11.819 15.319 12.135C15.198 12.967 14.8684 13.7547 14.361 14.425C13.52 15.535 12.421 16.225 11.031 16.411C9.88604 16.563 8.82204 16.341 7.88804 15.641C7.02304 14.986 6.53204 14.121 6.40404 13.046C6.25204 11.772 6.62604 10.627 7.39704 9.62204C8.22704 8.53604 9.32504 7.84604 10.669 7.60204C11.767 7.40204 12.819 7.53204 13.765 8.17304C14.385 8.58304 14.828 9.14304 15.121 9.82104C15.191 9.92604 15.144 9.98504 15.004 10.021V10.02ZM18.872 16.482C17.808 16.458 16.838 16.154 16.02 15.453C15.3395 14.8795 14.891 14.078 14.758 13.198C14.548 11.878 14.91 10.709 15.705 9.66904C16.558 8.54704 17.586 7.96304 18.977 7.71904C20.169 7.50904 21.291 7.62404 22.307 8.31404C23.23 8.94404 23.803 9.79804 23.955 10.919C24.153 12.497 23.698 13.782 22.611 14.881C21.84 15.664 20.893 16.154 19.806 16.376C19.491 16.436 19.176 16.446 18.872 16.482V16.482ZM21.652 11.762C21.641 11.609 21.641 11.492 21.618 11.375C21.408 10.218 20.344 9.56504 19.234 9.82104C18.147 10.066 17.446 10.756 17.189 11.854C16.979 12.766 17.423 13.689 18.264 14.064C18.907 14.344 19.549 14.308 20.169 13.994C21.092 13.514 21.594 12.766 21.653 11.761L21.652 11.762Z" fill="#CACACA"/>
</g>
<defs>
<clipPath id="clip0_303_70">
<rect width="24" height="24" fill="white"/>
</clipPath>
</defs>
</svg>
